<?xml version="1.0" standalone="no"?>
<!DOCTYPE svg PUBLIC "-//W3C//DTD SVG 20010904//EN"
 "http://www.w3.org/TR/2001/REC-SVG-20010904/DTD/svg10.dtd">
<svg version="1.0" xmlns="http://www.w3.org/2000/svg"
 width="528.000000pt" height="560.000000pt" viewBox="0 0 528.000000 560.000000"
 preserveAspectRatio="xMidYMid meet">

<g transform="translate(0.000000,560.000000) scale(0.100000,-0.100000)"
fill="#000000" stroke="none">
<path d="M2395 5194 c-16 -14 -43 -32 -59 -40 -27 -15 -29 -15 -60 15 -48 47
-72 39 -110 -36 -26 -52 -49 -59 -102 -28 -65 38 -93 25 -108 -54 -7 -37 -31
-71 -51 -71 -7 0 -34 9 -60 21 -38 17 -52 19 -71 10 -25 -11 -28 -23 -24 -102
2 -47 -21 -117 -43 -131 -7 -4 -30 -8 -52 -8 -68 0 -109 -47 -70 -80 24 -20
18 -29 -42 -58 -48 -22 -59 -32 -61 -56 -2 -19 4 -36 19 -52 18 -20 21 -29 13
-42 -6 -9 -20 -19 -30 -21 -47 -8 -57 -41 -22 -78 21 -22 21 -25 10 -145 -19
-197 -10 -505 17 -605 l9 -33 -42 0 c-64 0 -98 -47 -60 -84 11 -12 35 -16 88
-16 l73 0 -9 -52 c-6 -29 -8 -84 -5 -123 11 -168 103 -309 253 -387 259 -136
574 -14 677 260 18 46 22 80 22 179 1 133 7 151 68 197 38 28 113 27 155 -3
52 -37 63 -68 65 -199 3 -131 21 -196 77 -278 51 -73 99 -116 176 -156 259
-136 579 -13 676 260 25 69 34 178 20 250 l-9 52 73 0 c76 0 104 13 104 49 0
39 -31 51 -131 51 -94 0 -95 0 -112 29 -26 44 -129 135 -181 160 -94 44 -154
52 -330 48 -109 -3 -174 -10 -193 -19 -35 -17 -42 -52 -13 -68 20 -11 19 -14
-34 -71 -31 -33 -56 -63 -56 -67 0 -4 -4 -13 -9 -21 -7 -12 -16 -8 -41 18 -90
89 -219 93 -314 9 -42 -36 -45 -37 -51 -18 -4 11 -31 47 -61 80 -53 56 -54 59
-34 70 29 16 22 51 -13 68 -19 9 -84 16 -193 19 -176 4 -236 -4 -330 -48 -52
-25 -155 -116 -181 -160 -14 -23 -24 -29 -51 -29 -31 0 -34 2 -27 23 3 12 10
101 15 197 8 159 15 221 36 318 10 48 70 95 209 162 310 152 659 211 1065 181
170 -13 257 -30 360 -71 69 -27 116 -51 365 -186 46 -25 93 -44 112 -44 27 0
33 5 44 37 7 23 10 67 6 123 -5 78 -14 113 -60 234 -13 34 -12 45 1 97 15 55
15 59 -4 80 -18 20 -25 21 -106 15 l-87 -7 10 31 c15 40 4 78 -25 91 -18 9
-37 7 -81 -6 -31 -9 -60 -14 -62 -11 -3 3 0 33 7 66 17 79 6 95 -60 86 -145
-21 -142 -22 -193 46 -36 49 -59 61 -92 48 -21 -8 -37 -5 -76 11 -36 16 -60
20 -89 15 -30 -5 -52 -1 -84 14 -31 14 -62 19 -107 18 -53 -2 -72 2 -110 25
-58 34 -104 35 -144 1z m-189 -1484 c139 -68 225 -228 211 -388 -22 -229 -237
-392 -464 -352 -312 54 -437 422 -225 660 37 42 40 43 35 18 -4 -22 0 -30 22
-40 24 -11 29 -9 57 21 64 69 189 125 262 117 21 -3 67 -18 102 -36z m1061 22
c68 -22 129 -58 171 -103 28 -30 33 -32 57 -21 22 10 26 18 22 40 -5 25 -2 24
35 -18 111 -124 137 -291 69 -436 -77 -165 -250 -255 -428 -224 -305 53 -433
404 -237 647 43 53 81 80 153 109 68 29 83 29 158 6z"/>
<path d="M1988 3466 c-56 -15 -112 -56 -133 -97 -25 -47 -9 -51 53 -16 53 30
63 32 152 32 89 0 99 -2 152 -32 62 -36 78 -31 53 17 -22 42 -87 87 -146 99
-61 13 -71 13 -131 -3z"/>
<path d="M3148 3466 c-56 -15 -112 -56 -133 -97 -25 -47 -9 -51 53 -16 53 30
63 32 152 32 89 0 99 -2 152 -32 62 -36 78 -31 53 17 -22 42 -87 87 -146 99
-61 13 -71 13 -131 -3z"/>
<path d="M3582 4178 c-7 -9 -1 -33 23 -83 38 -82 62 -171 81 -310 18 -128 30
-165 54 -165 28 0 40 56 40 180 0 99 -17 226 -38 280 -14 34 -59 76 -104 94
-45 19 -43 19 -56 4z"/>
<path d="M2363 2581 c11 -84 74 -171 153 -211 39 -20 64 -25 124 -25 60 0 85
5 124 25 79 40 142 127 153 211 l6 39 -283 0 -283 0 6 -39z"/>
<path d="M1965 1634 c-11 -3 -42 -11 -70 -19 -27 -8 -77 -19 -110 -26 -174
-33 -410 -137 -550 -242 -306 -229 -495 -526 -571 -900 -20 -96 -24 -148 -24
-283 l0 -164 2000 0 2000 0 0 164 c0 185 -23 329 -78 486 -97 278 -272 514
-517 697 -142 106 -383 212 -550 242 -38 7 -88 19 -110 26 -22 8 -58 16 -81
20 l-41 6 35 -70 c85 -172 33 -370 -130 -498 l-57 -45 -59 46 c-56 44 -63 47
-113 45 -30 -1 -61 -6 -69 -10 -78 -36 -110 -42 -230 -42 -120 0 -152 6 -230
42 -8 4 -39 9 -69 10 -50 2 -57 -1 -113 -45 l-59 -46 -57 45 c-163 128 -215
326 -130 497 36 73 35 74 -17 64z m2000 -1054 c43 -33 74 -60 69 -61 -5 0 -88
-8 -184 -18 -96 -10 -176 -17 -177 -17 -1 1 0 12 4 24 8 31 148 132 183 132
18 0 53 -20 105 -60z"/>
</g>
</svg>
